HIERARCHY
ROOT mixamorig:Hips
{
	OFFSET 0.000000 104.274902 0.000000
	CHANNELS 6 Xposition Yposition Zposition Xrotation Yrotation Zrotation
	JOINT mixamorig:Spine
	{
		OFFSET 0.000000 10.181549 0.131524
		CHANNELS 6 Xposition Yposition Zposition Xrotation Yrotation Zrotation
		JOINT mixamorig:Spine1
		{
			OFFSET 0.000000 9.893990 -1.470706
			CHANNELS 3 Xrotation Yrotation Zrotation
			JOINT mixamorig:Spine2
			{
				OFFSET 0.000000 9.220787 -1.370637
				CHANNELS 3 Xrotation Yrotation Zrotation
				JOINT mixamorig:Neck
				{
					OFFSET 0.000000 16.740372 -2.049022
					CHANNELS 6 Xposition Yposition Zposition Xrotation Yrotation Zrotation
					JOINT mixamorig:Head
					{
						OFFSET 0.000000 9.617859 1.684976
						CHANNELS 6 Xposition Yposition Zposition Xrotation Yrotation Zrotation
						JOINT mixamorig:HeadTop_End
						{
							OFFSET 0.000000 22.037384 7.501072
							CHANNELS 6 Xposition Yposition Zposition Xrotation Yrotation Zrotation
							End Site
							{
								OFFSET 0.000000 23.106567 -2.828246
							}
						}
					}
				}
				JOINT mixamorig:RightShoulder
				{
					OFFSET -4.570000 11.014877 -2.160840
					CHANNELS 6 Xposition Yposition Zposition Xrotation Yrotation Zrotation
					JOINT mixamorig:RightArm
					{
						OFFSET -10.592867 -0.524796 -2.232105
						CHANNELS 3 Xrotation Yrotation Zrotation
						JOINT mixamorig:RightForeArm
						{
							OFFSET -27.841497 0.000000 -0.000002
							CHANNELS 3 Xrotation Yrotation Zrotation
							JOINT mixamorig:RightHand
							{
								OFFSET -28.328812 0.000000 -0.000001
								CHANNELS 3 Xrotation Yrotation Zrotation
								JOINT mixamorig:RightHandThumb1
								{
									OFFSET -2.464798 -1.573990 2.681911
									CHANNELS 6 Xposition Yposition Zposition Xrotation Yrotation Zrotation
									JOINT mixamorig:RightHandThumb2
									{
										OFFSET -3.244781 -1.873383 1.873376
										CHANNELS 3 Xrotation Yrotation Zrotation
										JOINT mixamorig:RightHandThumb3
										{
											OFFSET -2.646263 -1.527817 1.527818
											CHANNELS 6 Xposition Yposition Zposition Xrotation Yrotation Zrotation
											JOINT mixamorig:RightHandThumb4
											{
												OFFSET -1.994591 -1.151581 1.151575
												CHANNELS 6 Xposition Yposition Zposition Xrotation Yrotation Zrotation
												End Site
												{
													OFFSET -1.860176 -1.142715 1.365483
												}
											}
										}
									}
								}
								JOINT mixamorig:RightHandIndex1
								{
									OFFSET -9.108299 -0.517883 2.259803
									CHANNELS 6 Xposition Yposition Zposition Xrotation Yrotation Zrotation
									JOINT mixamorig:RightHandIndex2
									{
										OFFSET -3.699997 0.000000 0.000000
										CHANNELS 3 Xrotation Yrotation Zrotation
										JOINT mixamorig:RightHandIndex3
										{
											OFFSET -2.850006 0.000000 0.000000
											CHANNELS 3 Xrotation Yrotation Zrotation
											JOINT mixamorig:RightHandIndex4
											{
												OFFSET -2.772194 0.000000 0.000000
												CHANNELS 3 Xrotation Yrotation Zrotation
												End Site
												{
													OFFSET -2.772202 0.000000 -0.000484
												}
											}
										}
									}
								}
								JOINT mixamorig:RightHandMiddle1
								{
									OFFSET -9.532501 0.000000 -0.000000
									CHANNELS 6 Xposition Yposition Zposition Xrotation Yrotation Zrotation
									JOINT mixamorig:RightHandMiddle2
									{
										OFFSET -3.699997 0.000000 0.000000
										CHANNELS 3 Xrotation Yrotation Zrotation
										JOINT mixamorig:RightHandMiddle3
										{
											OFFSET -2.949997 0.000000 0.000000
											CHANNELS 3 Xrotation Yrotation Zrotation
											JOINT mixamorig:RightHandMiddle4
											{
												OFFSET -2.946594 0.000000 0.000000
												CHANNELS 3 Xrotation Yrotation Zrotation
												End Site
												{
													OFFSET -2.946602 0.000000 -0.000982
												}
											}
										}
									}
								}
								JOINT mixamorig:RightHandRing1
								{
									OFFSET -9.103600 -0.043106 -1.865100
									CHANNELS 6 Xposition Yposition Zposition Xrotation Yrotation Zrotation
									JOINT mixamorig:RightHandRing2
									{
										OFFSET -3.379303 0.000000 0.000000
										CHANNELS 3 Xrotation Yrotation Zrotation
										JOINT mixamorig:RightHandRing3
										{
											OFFSET -2.889694 0.000000 0.000000
											CHANNELS 3 Xrotation Yrotation Zrotation
											JOINT mixamorig:RightHandRing4
											{
												OFFSET -2.638802 0.000000 0.000000
												CHANNELS 3 Xrotation Yrotation Zrotation
												End Site
												{
													OFFSET -2.638802 0.000000 0.004218
												}
											}
										}
									}
								}
								JOINT mixamorig:RightHandPinky1
								{
									OFFSET -8.076698 -0.486725 -3.806299
									CHANNELS 6 Xposition Yposition Zposition Xrotation Yrotation Zrotation
									JOINT mixamorig:RightHandPinky2
									{
										OFFSET -3.600006 0.000000 0.000000
										CHANNELS 3 Xrotation Yrotation Zrotation
										JOINT mixamorig:RightHandPinky3
										{
											OFFSET -2.099998 0.000000 0.000000
											CHANNELS 3 Xrotation Yrotation Zrotation
											JOINT mixamorig:RightHandPinky4
											{
												OFFSET -2.115791 0.000000 0.000000
												CHANNELS 3 Xrotation Yrotation Zrotation
												End Site
												{
													OFFSET -2.115799 0.000000 0.000174
												}
											}
										}
									}
								}
							}
						}
					}
				}
				JOINT mixamorig:LeftShoulder
				{
					OFFSET 4.570400 11.014679 -2.160816
					CHANNELS 6 Xposition Yposition Zposition Xrotation Yrotation Zrotation
					JOINT mixamorig:LeftArm
					{
						OFFSET 10.592373 -0.524597 -2.232116
						CHANNELS 3 Xrotation Yrotation Zrotation
						JOINT mixamorig:LeftForeArm
						{
							OFFSET 27.841488 0.000000 0.000001
							CHANNELS 3 Xrotation Yrotation Zrotation
							JOINT mixamorig:LeftHand
							{
								OFFSET 28.328808 0.000000 -0.000000
								CHANNELS 3 Xrotation Yrotation Zrotation
								JOINT mixamorig:LeftHandThumb1
								{
									OFFSET 2.466103 -1.576202 2.681698
									CHANNELS 6 Xposition Yposition Zposition Xrotation Yrotation Zrotation
									JOINT mixamorig:LeftHandThumb2
									{
										OFFSET 3.243317 -1.872528 1.872530
										CHANNELS 3 Xrotation Yrotation Zrotation
										JOINT mixamorig:LeftHandThumb3
										{
											OFFSET 2.647881 -1.528763 1.528754
											CHANNELS 6 Xposition Yposition Zposition Xrotation Yrotation Zrotation
											JOINT mixamorig:LeftHandThumb4
											{
												OFFSET 1.998924 -1.154083 1.154080
												CHANNELS 6 Xposition Yposition Zposition Xrotation Yrotation Zrotation
												End Site
												{
													OFFSET 1.884041 -1.149155 1.337651
												}
											}
										}
									}
								}
								JOINT mixamorig:LeftHandIndex1
								{
									OFFSET 9.109299 -0.518005 2.259900
									CHANNELS 6 Xposition Yposition Zposition Xrotation Yrotation Zrotation
									JOINT mixamorig:LeftHandIndex2
									{
										OFFSET 3.699997 0.000000 0.000000
										CHANNELS 3 Xrotation Yrotation Zrotation
										JOINT mixamorig:LeftHandIndex3
										{
											OFFSET 2.850006 0.000000 0.000000
											CHANNELS 3 Xrotation Yrotation Zrotation
											JOINT mixamorig:LeftHandIndex4
											{
												OFFSET 2.774895 0.000000 0.000000
												CHANNELS 3 Xrotation Yrotation Zrotation
												End Site
												{
													OFFSET 2.774902 0.000000 -0.000072
												}
											}
										}
									}
								}
								JOINT mixamorig:LeftHandMiddle1
								{
									OFFSET 9.533401 0.000000 0.000000
									CHANNELS 6 Xposition Yposition Zposition Xrotation Yrotation Zrotation
									JOINT mixamorig:LeftHandMiddle2
									{
										OFFSET 3.699997 0.000000 0.000000
										CHANNELS 3 Xrotation Yrotation Zrotation
										JOINT mixamorig:LeftHandMiddle3
										{
											OFFSET 2.949997 0.000000 0.000000
											CHANNELS 3 Xrotation Yrotation Zrotation
											JOINT mixamorig:LeftHandMiddle4
											{
												OFFSET 2.952896 0.000000 0.000000
												CHANNELS 3 Xrotation Yrotation Zrotation
												End Site
												{
													OFFSET 2.952904 0.000000 0.000165
												}
											}
										}
									}
								}
								JOINT mixamorig:LeftHandRing1
								{
									OFFSET 9.104500 -0.042999 -1.865101
									CHANNELS 6 Xposition Yposition Zposition Xrotation Yrotation Zrotation
									JOINT mixamorig:LeftHandRing2
									{
										OFFSET 3.149994 0.000000 0.000000
										CHANNELS 3 Xrotation Yrotation Zrotation
										JOINT mixamorig:LeftHandRing3
										{
											OFFSET 2.950005 0.000000 0.000000
											CHANNELS 3 Xrotation Yrotation Zrotation
											JOINT mixamorig:LeftHandRing4
											{
												OFFSET 2.644302 0.000000 0.000000
												CHANNELS 3 Xrotation Yrotation Zrotation
												End Site
												{
													OFFSET 2.644302 0.000000 0.000083
												}
											}
										}
									}
								}
								JOINT mixamorig:LeftHandPinky1
								{
									OFFSET 8.077805 -0.486893 -3.806302
									CHANNELS 6 Xposition Yposition Zposition Xrotation Yrotation Zrotation
									JOINT mixamorig:LeftHandPinky2
									{
										OFFSET 3.600006 0.000000 0.000000
										CHANNELS 3 Xrotation Yrotation Zrotation
										JOINT mixamorig:LeftHandPinky3
										{
											OFFSET 2.099998 0.000000 0.000000
											CHANNELS 3 Xrotation Yrotation Zrotation
											JOINT mixamorig:LeftHandPinky4
											{
												OFFSET 2.125496 0.000000 0.000000
												CHANNELS 3 Xrotation Yrotation Zrotation
												End Site
												{
													OFFSET 2.125504 0.000000 -0.001254
												}
											}
										}
									}
								}
							}
						}
					}
				}
			}
		}
	}
	JOINT mixamorig:RightUpLeg
	{
		OFFSET -8.207800 -6.751701 -1.599544
		CHANNELS 6 Xposition Yposition Zposition Xrotation Yrotation Zrotation
		JOINT mixamorig:RightLeg
		{
			OFFSET 0.000004 -44.370152 0.345934
			CHANNELS 3 Xrotation Yrotation Zrotation
			JOINT mixamorig:RightFoot
			{
				OFFSET 0.000004 -44.423664 -3.043535
				CHANNELS 3 Xrotation Yrotation Zrotation
				JOINT mixamorig:RightToeBase
				{
					OFFSET 0.000001 -8.728691 10.710592
					CHANNELS 3 Xrotation Yrotation Zrotation
					JOINT mixamorig:RightToe_End
					{
						OFFSET 0.000000 -0.000665 9.278101
						CHANNELS 3 Xrotation Yrotation Zrotation
						End Site
						{
							OFFSET 0.000000 -0.000665 9.278103
						}
					}
				}
			}
		}
	}
	JOINT mixamorig:LeftUpLeg
	{
		OFFSET 8.207800 -6.751701 -1.599544
		CHANNELS 6 Xposition Yposition Zposition Xrotation Yrotation Zrotation
		JOINT mixamorig:LeftLeg
		{
			OFFSET 0.000004 -44.370037 0.346940
			CHANNELS 3 Xrotation Yrotation Zrotation
			JOINT mixamorig:LeftFoot
			{
				OFFSET 0.000004 -44.423611 -3.044388
				CHANNELS 3 Xrotation Yrotation Zrotation
				JOINT mixamorig:LeftToeBase
				{
					OFFSET 0.000001 -8.728690 10.710592
					CHANNELS 3 Xrotation Yrotation Zrotation
					JOINT mixamorig:LeftToe_End
					{
						OFFSET 0.000000 -0.000680 9.278101
						CHANNELS 3 Xrotation Yrotation Zrotation
						End Site
						{
							OFFSET 0.000000 -0.000680 9.278101
						}
					}
				}
			}
		}
	}
}
MOTION
Frames: 4
Frame Time: 0.033333
0.463441 57.724533 2.987190 -10.452952 0.727742 -1.491627 0.000001 10.181540 0.131525 21.810078 2.442296 -5.215570 3.020025 0.981797 -0.371537 3.018358 0.928061 -0.541366 -0.000001 16.740381 -2.049025 5.106700 -1.511633 -0.223938 0.000002 9.617861 1.684971 -18.797164 -9.792464 6.400217 -0.000001 22.037369 7.501074 -0.000001 0.000000 -0.000000 -4.570002 11.014903 -2.160844 0.523102 18.306232 10.117984 -23.559115 46.474926 39.491915 -0.000027 52.450703 0.000059 30.090924 -12.185244 -34.251059 -2.464804 -1.573988 2.681902 -16.267315 -5.847444 -3.333280 7.595839 -17.314811 -1.263380 -2.646260 -1.527819 1.527814 3.910112 -8.103304 -9.938099 -1.994583 -1.151585 1.151569 0.000004 -0.000000 -0.000000 -9.108303 -0.517886 2.259802 0.300106 -4.864887 6.139176 2.734806 -4.242700 65.596864 0.033519 -0.558199 6.869038 -0.000000 0.000001 -0.000001 -9.532499 0.000008 -0.000002 0.449231 -4.813657 10.874514 0.135053 -1.114590 13.817620 0.122652 1.062885 -13.164746 -0.000002 0.000001 0.000000 -9.103600 -0.043097 -1.865103 2.016821 -9.218882 17.344984 0.137179 -1.123193 13.926240 0.046863 -0.659722 8.126063 0.000001 -0.000002 0.000002 -8.076704 -0.486714 -3.806300 4.487949 -18.286129 15.690003 0.325391 -1.711882 21.523420 0.261337 -1.539665 19.265754 -0.000000 0.000001 0.000002 4.570398 11.014696 -2.160822 0.707211 -11.630262 -9.023087 -36.081693 -37.764119 -53.630970 -0.000018 -55.353448 -0.000017 36.545214 3.775667 14.657321 2.466105 -1.576209 2.681702 -7.103743 6.813701 6.871605 7.071427 18.829064 -9.011989 2.647875 -1.528761 1.528758 -15.036767 8.364725 12.541024 1.998917 -1.154082 1.154084 0.000001 -0.000000 -0.000004 9.109312 -0.518023 2.259899 1.511426 -2.123732 24.043965 5.583572 5.845146 -87.374942 0.338286 1.963764 -19.547260 0.000000 -0.000003 0.000001 9.533408 0.000009 -0.000000 -0.167933 4.371391 5.785628 1.619829 4.045043 -43.635070 0.935027 3.176958 -32.794467 0.000001 -0.000000 0.000000 9.104495 -0.042997 -1.865103 1.031203 13.331728 -4.646489 0.797354 2.952670 -30.219725 0.923767 3.159424 -32.590528 0.000003 0.000003 -0.000000 8.077809 -0.486899 -3.806297 0.443059 16.497740 -0.840282 0.427009 2.197587 -21.990948 0.181699 1.449289 -14.293159 -0.000000 -0.000001 -0.000001 -8.207799 -6.751702 -1.599533 -82.054915 -2.902871 -8.307831 90.957206 -9.361678 0.941533 0.884621 -3.469905 -2.792616 -0.125176 -0.000007 0.000002 0.000000 0.000002 0.000000 8.207799 -6.751702 -1.599545 -82.405973 -2.252620 10.970578 88.433956 -7.881488 -4.001273 4.421981 0.055365 3.279099 -0.000100 -0.000000 -0.000004 -0.000000 -0.000000 0.000000 
0.477250 57.713249 3.018599 -10.035881 0.639667 -1.429021 0.000000 10.181554 0.131525 21.367103 2.400894 -5.149403 2.968661 0.964002 -0.369377 2.966904 0.913046 -0.531546 -0.000000 16.740353 -2.049019 5.115160 -1.566466 -0.235551 0.000002 9.617847 1.684987 -18.791012 -10.479470 6.423136 -0.000000 22.037384 7.501076 -0.000000 0.000000 0.000000 -4.570000 11.014856 -2.160839 0.511549 18.234081 10.180163 -23.001234 46.975808 39.147885 -0.000023 52.463578 0.000056 30.307817 -11.974357 -35.349152 -2.464801 -1.573984 2.681907 -17.613980 -6.090864 -4.538002 7.609224 -17.345892 -1.253846 -2.646280 -1.527815 1.527817 3.907850 -8.134109 -9.895734 -1.994590 -1.151586 1.151566 0.000003 -0.000003 -0.000000 -9.108301 -0.517878 2.259803 -0.023331 -5.634331 -1.261769 2.917387 -4.320663 68.042208 0.072949 -0.821934 10.143453 0.000001 0.000001 0.000000 -9.532506 0.000023 -0.000002 0.651445 -5.090305 15.409870 0.101723 -0.969076 11.984198 0.154337 1.190231 -14.776091 0.000001 0.000004 -0.000000 -9.103602 -0.043107 -1.865103 1.960923 -8.781973 18.195853 0.143691 -1.149118 14.254608 0.039987 -0.609656 7.505621 -0.000000 -0.000003 -0.000003 -8.076704 -0.486716 -3.806299 4.491257 -18.796493 15.173890 0.323996 -1.708309 21.476374 0.266845 -1.555329 19.469765 0.000000 0.000000 0.000002 4.570404 11.014677 -2.160814 0.701958 -11.661861 -9.098983 -35.599783 -37.540099 -53.262331 -0.000013 -55.666185 -0.000022 36.280486 3.948389 14.384443 2.466110 -1.576180 2.681707 -7.047210 6.832021 6.774118 7.074151 18.829609 -9.015089 2.647887 -1.528764 1.528759 -15.126963 8.388729 12.531877 1.998922 -1.154083 1.154078 0.000002 0.000001 -0.000002 9.109312 -0.518003 2.259899 1.485419 -1.974515 25.087985 5.368056 5.831330 -85.256539 0.323676 1.922195 -19.116853 -0.000000 -0.000002 -0.000001 9.533400 0.000001 -0.000000 0.108741 3.737573 -2.158732 1.694999 4.122233 -44.690413 0.889387 3.105082 -31.961450 0.000000 -0.000000 0.000001 9.104510 -0.043002 -1.865100 0.763898 12.849128 -3.387201 0.791355 2.942350 -30.103072 0.955743 3.208821 -33.166282 0.000001 -0.000001 0.000001 8.077814 -0.486892 -3.806297 0.019320 16.695315 0.916216 0.440595 2.230927 -22.342606 0.201001 1.523001 -15.037153 0.000001 0.000001 0.000001 -8.207801 -6.751701 -1.599541 -82.492518 -2.773260 -8.246937 90.950615 -9.367724 0.970543 0.929017 -3.450764 -2.779765 -0.125173 -0.000003 0.000002 0.000000 0.000002 0.000000 8.207798 -6.751704 -1.599548 -82.808032 -2.230920 11.019484 88.416573 -7.855073 -4.072072 4.422569 0.053902 3.292428 -0.000100 -0.000000 -0.000004 -0.000000 0.000000 0.000000 
0.495435 57.701416 3.053053 -9.804934 0.592792 -1.374777 0.000001 10.181550 0.131521 21.088190 2.262765 -5.044419 2.942927 0.916614 -0.349062 2.941446 0.863799 -0.513079 0.000001 16.740370 -2.049023 5.132608 -1.597996 -0.275876 -0.000000 9.617866 1.684985 -18.877630 -10.810925 6.134440 0.000000 22.037369 7.501078 -0.000000 0.000001 0.000000 -4.569999 11.014873 -2.160843 0.517494 18.150601 10.199009 -22.692247 47.792415 38.934517 -0.000021 51.927452 0.000053 29.982946 -12.123972 -34.318385 -2.464800 -1.573969 2.681912 -18.912353 -6.296433 -5.714699 7.622329 -17.376414 -1.244482 -2.646273 -1.527829 1.527828 3.905271 -8.163613 -9.855113 -1.994583 -1.151585 1.151569 0.000001 0.000003 -0.000000 -9.108299 -0.517873 2.259804 -0.604075 -5.884503 -9.460747 3.089563 -4.385956 70.310029 0.104676 -0.982845 12.157300 0.000001 0.000002 -0.000000 -9.532496 0.000002 -0.000000 0.948296 -5.986407 16.438611 0.141324 -1.139765 14.136227 0.157005 1.200300 -14.903929 0.000001 -0.000002 -0.000000 -9.103600 -0.043106 -1.865098 1.703291 -8.205921 17.449827 0.163707 -1.225201 15.220720 0.044399 -0.642192 7.908790 0.000000 -0.000000 0.000002 -8.076698 -0.486716 -3.806296 4.410517 -18.821416 14.864086 0.329104 -1.721270 21.647269 0.271312 -1.567858 19.633247 -0.000000 0.000001 0.000003 4.570400 11.014686 -2.160817 0.686941 -11.628250 -9.248932 -35.031214 -37.331324 -52.717709 -0.000017 -56.045722 -0.000002 35.926761 4.151618 14.235600 2.466105 -1.576179 2.681701 -6.988621 6.849553 6.672396 7.077089 18.830797 -9.018148 2.647889 -1.528758 1.528756 -15.213710 8.411828 12.523157 1.998918 -1.154084 1.154091 0.000001 0.000001 -0.000004 9.109297 -0.518026 2.259898 1.447544 -1.793620 26.477558 4.862729 5.767417 -80.258636 0.292029 1.828368 -18.149536 -0.000000 -0.000002 0.000000 9.533403 0.000004 -0.000004 0.118027 3.169162 -6.879381 1.778993 4.205228 -45.847385 0.710346 2.798125 -28.485345 0.000000 -0.000001 0.000001 9.104518 -0.043002 -1.865101 0.589425 12.545887 -2.502759 0.807920 2.970709 -30.424419 1.010956 3.291628 -34.140059 0.000000 -0.000002 -0.000001 8.077812 -0.486897 -3.806301 -0.201942 17.265846 1.800499 0.443732 2.238541 -22.423142 0.229128 1.623981 -16.060912 -0.000002 -0.000002 0.000003 -8.207800 -6.751698 -1.599538 -82.743678 -2.665316 -8.214939 90.981350 -9.368276 0.975776 0.935120 -3.440880 -2.742005 -0.125173 -0.000003 0.000002 0.000000 -0.000000 0.000000 8.207801 -6.751697 -1.599553 -83.033770 -2.200340 11.040637 88.429496 -7.835325 -4.119081 4.405968 0.053033 3.311028 -0.000099 0.000001 -0.000004 -0.000000 -0.000000 0.000000 
0.502283 57.690681 3.065104 -9.775346 0.613044 -1.326686 0.000000 10.181543 0.131526 21.045729 2.063610 -4.929816 2.943603 0.854240 -0.326620 2.942393 0.799962 -0.490538 -0.000001 16.740377 -2.049021 5.142318 -1.605011 -0.313291 0.000002 9.617837 1.684980 -18.905916 -10.804182 5.740329 -0.000000 22.037384 7.501076 -0.000000 0.000001 0.000000 -4.570002 11.014870 -2.160838 0.515247 18.146315 10.228004 -22.653753 48.621122 38.828379 -0.000041 51.016664 0.000071 29.610540 -13.042154 -31.587743 -2.464794 -1.574010 2.681905 -20.107735 -6.474837 -6.769865 7.635221 -17.406377 -1.235273 -2.646266 -1.527802 1.527823 3.902350 -8.191796 -9.816202 -1.994575 -1.151600 1.151567 -0.000000 -0.000000 -0.000000 -9.108300 -0.517869 2.259802 -0.960723 -5.207467 -15.975170 3.063514 -4.376587 69.969059 0.097696 -0.949885 11.743697 0.000001 -0.000001 -0.000001 -9.532492 -0.000003 -0.000002 1.079083 -6.747207 14.846055 0.302027 -1.651414 20.726866 0.119966 1.051322 -13.018925 0.000000 0.000002 0.000000 -9.103591 -0.043106 -1.865105 1.404655 -7.258193 17.534351 0.211758 -1.389766 17.326458 0.055567 -0.718043 8.850059 0.000000 0.000000 0.000000 -8.076698 -0.486718 -3.806297 4.136248 -18.158165 14.534200 0.333471 -1.732240 21.792267 0.269699 -1.563356 19.574511 -0.000000 0.000001 0.000003 4.570399 11.014704 -2.160812 0.677035 -11.591351 -9.353194 -34.497172 -37.175562 -52.107865 -0.000037 -56.413708 -0.000028 35.497938 4.369382 14.260319 2.466099 -1.576207 2.681698 -6.929159 6.866068 6.568477 7.080286 18.832756 -9.021141 2.647880 -1.528766 1.528754 -15.297366 8.434076 12.514816 1.998921 -1.154086 1.154081 -0.000000 0.000003 -0.000002 9.109319 -0.518018 2.259897 1.346033 -1.629300 25.837774 4.209928 5.617109 -73.684135 0.249673 1.693775 -16.771389 0.000000 -0.000000 0.000001 9.533407 -0.000002 0.000000 0.044813 2.620796 -7.824702 1.882962 4.303458 -47.248790 0.553080 2.486849 -25.075148 0.000001 0.000001 -0.000000 9.104509 -0.043003 -1.865099 0.565486 12.737878 -2.299669 0.837767 3.020875 -30.995340 1.052003 3.351272 -34.848691 0.000001 -0.000000 0.000000 8.077813 -0.486891 -3.806303 -0.466905 17.882625 2.776728 0.420233 2.180764 -21.813560 0.270671 1.761937 -17.467982 0.000003 -0.000000 0.000002 -8.207799 -6.751712 -1.599540 -82.797363 -2.628557 -8.250477 91.014156 -9.379496 0.957576 0.922484 -3.435431 -2.734188 -0.125175 -0.000002 0.000003 -0.000000 0.000002 0.000000 8.207800 -6.751701 -1.599552 -83.068078 -2.153434 11.015811 88.443109 -7.833017 -4.132294 4.403036 0.052525 3.327999 -0.000101 -0.000000 -0.000004 -0.000000 -0.000000 0.000000 
